<?xml version="1.0" encoding="utf-8"?>
<!-- Generator: Adobe Illustrator 19.2.1, SVG Export Plug-In . SVG Version: 6.00 Build 0)  -->
<svg version="1.1" id="Layer_1" xmlns="http://www.w3.org/2000/svg" xmlns:xlink="http://www.w3.org/1999/xlink" x="0px" y="0px"
	 viewBox="0 0 256 248.9" style="enable-background:new 0 0 256 248.9;" xml:space="preserve">
<style type="text/css">
	.st0{fill:#FFFFFF;}
</style>
<path class="st0" d="M13.2,248.9h5.7c0.3,0,0.6-0.3,0.6-0.6v-4.7c0-0.3-0.3-0.6-0.6-0.6h-1.1c-0.3,0-0.6-0.3-0.6-0.6v-49.1
	c0-0.1,0-0.1,0-0.2l6.5-97.3c0-0.1,0-0.3,0-0.4V5.9c0-3.3-2.7-5.9-5.9-5.9H5.9C2.7,0,0,2.7,0,5.9v89.5c0,0.1,0,0.3,0,0.4l6.5,97.3
	c0,0.1,0,0.1,0,0.2v49.1c0,0.3-0.3,0.6-0.6,0.6H4.8c-0.3,0-0.6,0.3-0.6,0.6v4.7c0,0.3,0.3,0.6,0.6,0.6H13.2z"/>
<path class="st0" d="M43.6,0H38c-0.3,0-0.6,0.3-0.6,0.6v4.7c0,0.3,0.3,0.6,0.6,0.6h1.1c0.3,0,0.6,0.3,0.6,0.6v49.1
	c0,0.1,0,0.1,0,0.2l-6.5,97.3c0,0.1,0,0.3,0,0.4V243c0,3.3,2.7,5.9,5.9,5.9H51c3.3,0,5.9-2.7,5.9-5.9v-89.5c0-0.1,0-0.3,0-0.4
	l-6.5-97.3c0-0.1,0-0.1,0-0.2V6.5c0-0.3,0.3-0.6,0.6-0.6h1.2c0.3,0,0.6-0.3,0.6-0.6V0.6c0-0.3-0.3-0.6-0.6-0.6H43.6z"/>
<path class="st0" d="M79.6,248.9h5.7c0.3,0,0.6-0.3,0.6-0.6v-4.7c0-0.3-0.3-0.6-0.6-0.6h-1.1c-0.3,0-0.6-0.3-0.6-0.6v-49.1
	c0-0.1,0-0.1,0-0.2l6.5-97.3c0-0.1,0-0.3,0-0.4V5.9c0-3.3-2.7-5.9-5.9-5.9H72.3c-3.3,0-5.9,2.7-5.9,5.9v89.5c0,0.1,0,0.3,0,0.4
	l6.5,97.3c0,0.1,0,0.1,0,0.2v49.1c0,0.3-0.3,0.6-0.6,0.6h-1.2c-0.3,0-0.6,0.3-0.6,0.6v4.7c0,0.3,0.3,0.6,0.6,0.6H79.6z"/>
<path class="st0" d="M110,0h-5.7c-0.3,0-0.6,0.3-0.6,0.6v4.7c0,0.3,0.3,0.6,0.6,0.6h1.1c0.3,0,0.6,0.3,0.6,0.6v49.1
	c0,0.1,0,0.1,0,0.2l-6.5,97.3c0,0.1,0,0.3,0,0.4V243c0,3.3,2.7,5.9,5.9,5.9h11.9c3.3,0,5.9-2.7,5.9-5.9v-89.5c0-0.1,0-0.3,0-0.4
	l-6.5-97.3c0-0.1,0-0.1,0-0.2V6.5c0-0.3,0.3-0.6,0.6-0.6h1.2c0.3,0,0.6-0.3,0.6-0.6V0.6c0-0.3-0.3-0.6-0.6-0.6H110z"/>
<path class="st0" d="M146,248.9h5.7c0.3,0,0.6-0.3,0.6-0.6v-4.7c0-0.3-0.3-0.6-0.6-0.6h-1.1c-0.3,0-0.6-0.3-0.6-0.6v-49.1
	c0-0.1,0-0.1,0-0.2l6.5-97.3c0-0.1,0-0.3,0-0.4V5.9c0-3.3-2.7-5.9-5.9-5.9h-11.9c-3.3,0-5.9,2.7-5.9,5.9v89.5c0,0.1,0,0.3,0,0.4
	l6.5,97.3c0,0.1,0,0.1,0,0.2v49.1c0,0.3-0.3,0.6-0.6,0.6h-1.2c-0.3,0-0.6,0.3-0.6,0.6v4.7c0,0.3,0.3,0.6,0.6,0.6H146z"/>
<path class="st0" d="M176.4,0h-5.7c-0.3,0-0.6,0.3-0.6,0.6v4.7c0,0.3,0.3,0.6,0.6,0.6h1.1c0.3,0,0.6,0.3,0.6,0.6v49.1
	c0,0.1,0,0.1,0,0.2l-6.5,97.3c0,0.1,0,0.3,0,0.4V243c0,3.3,2.7,5.9,5.9,5.9h11.9c3.3,0,5.9-2.7,5.9-5.9v-89.5c0-0.1,0-0.3,0-0.4
	l-6.5-97.3c0-0.1,0-0.1,0-0.2V6.5c0-0.3,0.3-0.6,0.6-0.6h1.2c0.3,0,0.6-0.3,0.6-0.6V0.6c0-0.3-0.3-0.6-0.6-0.6H176.4z"/>
<path class="st0" d="M212.4,248.9h5.7c0.3,0,0.6-0.3,0.6-0.6v-4.7c0-0.3-0.3-0.6-0.6-0.6h-1.1c-0.3,0-0.6-0.3-0.6-0.6v-49.1
	c0-0.1,0-0.1,0-0.2l6.5-97.3c0-0.1,0-0.3,0-0.4V5.9c0-3.3-2.7-5.9-5.9-5.9H205c-3.3,0-5.9,2.7-5.9,5.9v89.5c0,0.1,0,0.3,0,0.4
	l6.5,97.3c0,0.1,0,0.1,0,0.2v49.1c0,0.3-0.3,0.6-0.6,0.6h-1.2c-0.3,0-0.6,0.3-0.6,0.6v4.7c0,0.3,0.3,0.6,0.6,0.6H212.4z"/>
<path class="st0" d="M242.8,0h-5.7c-0.3,0-0.6,0.3-0.6,0.6v4.7c0,0.3,0.3,0.6,0.6,0.6h1.1c0.3,0,0.6,0.3,0.6,0.6v49.1
	c0,0.1,0,0.1,0,0.2l-6.5,97.3c0,0.1,0,0.3,0,0.4V243c0,3.3,2.7,5.9,5.9,5.9h11.9c3.3,0,5.9-2.7,5.9-5.9v-89.5c0-0.1,0-0.3,0-0.4
	l-6.5-97.3c0-0.1,0-0.1,0-0.2V6.5c0-0.3,0.3-0.6,0.6-0.6h1.2c0.3,0,0.6-0.3,0.6-0.6V0.6c0-0.3-0.3-0.6-0.6-0.6H242.8z"/>
</svg>
